<?xml version="1.0" encoding="UTF-8"?>
<svg id="Layer_1" data-name="Layer 1" xmlns="http://www.w3.org/2000/svg" viewBox="0 0 77.9 87.08">
  <defs>
    <style>
      .cls-1 {
        fill: #34354c;
      }
    </style>
  </defs>
  <path class="cls-1" d="m36.96,69.55l4.18.07-.13-6.93c.92,1.96,3.27,5.03,3.27,5.03l3.07-2.48c-2.81-3.53-4.64-10.32-4.64-10.32-.11-1.8.02-3.62.1-5.42.09-2.05.35-4.13,2.08-5.48.93-.73,2.2-1.33,3.38-1.51,1.17-.09,2.44-.04,3.56.33,1.74.57,3.08,1.9,4.88,2.4,2.31.64,4.83.15,7.17-.05l-.26-3.79c-2.48.46-6.21-.52-6.21-.52,1.83-1.7,5.62-2.94,5.62-2.94-.07-1.24-.52-4.12-.52-4.12-6.73,1.57-8.82,5.36-8.82,5.36-1.24,0-2.42-.59-2.42-.59,2.68-3.07,9.8-7.25,9.8-7.25l-1.63-3.73c-10.06,4.71-12.74,11.11-12.74,11.11-1.18.2-3.07.98-3.07.98.42-2,1.48-3.84,2.71-5.45,1.29-1.69,3.09-2.59,4.77-3.82,2.2-1.6,4.45-3.1,6.31-5.11l-3.27-2.81c-1.18,1.63-4.51,3.92-4.51,3.92-1.5-2.42-.72-6.86-.72-6.86l-3.99-1.44c-.72,3.46,0,7.65,0,7.65.26,1.37,1.31,2.74,1.31,2.74-.65.65-2.22,2.09-2.22,2.09-.91-1.11-1.63-5.36-1.63-5.36-.33-2.74-.06-7.78-.06-7.78h-4.05c-.22,1.88-.18,3.79-.12,5.68.07,2.38.01,4.75.89,7.01.37.96.84,1.88,1.38,2.76.05.09.77,1,.72,1.09-.46.92-1.57,3.53-1.57,3.53-.13-2.88-1.9-6.01-1.9-6.01-1.11-1.7-2.68-3.33-2.68-3.33,1.7-1.76,1.83-3.86,1.83-3.86.33-2.42-1.24-6.86-1.24-6.86l-3.92,1.05c1.11,1.83,1.11,4.64,1.11,4.64,0,1.24-.85,2.35-.85,2.35-1.7-1.18-3.07-5.82-3.07-5.82l-3.92,1.9c.65,2.22,2.55,5.1,2.55,5.1,1.19,2.19,2.99,3.21,4.72,4.85,2.49,2.35,3.77,5.74,3.77,9.14-.85-.26-2.03-1.24-2.03-1.24-.21-.17-.22-2.11-.35-2.52-.25-.78-.62-1.54-1.08-2.22-1.27-1.89-3.01-2.6-5.1-3.17-.2-2.61-1.18-4.31-1.18-4.31-.91-1.96-2.87-4.32-2.87-4.32l-2.88,2.81c1.37,1.37,2.68,5.43,2.68,5.43-1.5-.46-4.9-2.61-4.9-2.61l-1.83,3.53c1.63,1.7,4.44,2.48,4.44,2.48,3.17.88,7.58-.02,8.95,3.86-1.96-.26-5.03.59-5.03.59-1.5-1.5-3.59-2.87-3.59-2.87-1.96-1.05-6.08-2.09-6.08-2.09l-.52,4.05c3.07.2,5.56,2.55,5.56,2.55-2.09.98-5.95.85-5.95.85l-.2,3.99c2.22.39,6.8-.52,6.8-.52,2.78-.68,5.65-2.6,8.55-2.48,1.76.08,3.42.87,4.5,2.26,1.43,1.83,1.48,4.25,1.44,6.47-.03,1.66.13,3.69-.3,5.31-.85,3.2-4.38,8.76-4.38,8.76l2.94,2.35c1.63-1.57,3.53-4.9,3.53-4.9l-.13,6.86Z"/>
  <path class="cls-1" d="m52.61,46.35c-4.21,0-7.61,3.41-7.61,7.61s3.41,7.61,7.61,7.61,7.61-3.41,7.61-7.61-3.41-7.61-7.61-7.61Zm0,11.18c-1.97,0-3.56-1.59-3.56-3.56s1.59-3.56,3.56-3.56,3.56,1.6,3.56,3.56-1.59,3.56-3.56,3.56Z"/>
  <path class="cls-1" d="m25.03,46.22c-4.21,0-7.62,3.41-7.62,7.61s3.41,7.61,7.62,7.61,7.61-3.41,7.61-7.61-3.41-7.61-7.61-7.61Zm0,11.18c-1.97,0-3.56-1.6-3.56-3.56s1.59-3.56,3.56-3.56,3.56,1.59,3.56,3.56-1.59,3.56-3.56,3.56Z"/>
</svg>