<?xml version="1.0" encoding="UTF-8"?>
<svg id="Layer_1" data-name="Layer 1" xmlns="http://www.w3.org/2000/svg" viewBox="0 0 85 85">
  <defs>
    <style>
      .cls-1 {
        fill: #34354c;
      }
    </style>
  </defs>
  <path class="cls-1" d="m72.05,57.25c-.5-1-1.63-1.38-2.63-.88-2.94,1.44-6.45,1.44-9.39,0-4.01-2-8.82-2-12.83,0-2.94,1.44-6.45,1.44-9.39,0-4.01-2-8.82-2-12.83,0-2.94,1.44-6.45,1.44-9.39,0-1-.5-2.13-.06-2.63.88-.5.94-.06,2.13.88,2.63,4.01,2,8.82,2,12.83,0,2.94-1.44,6.45-1.44,9.39,0,2,1,4.19,1.5,6.45,1.5s4.38-.5,6.45-1.5c2.94-1.44,6.45-1.44,9.39,0,4.01,2,8.82,2,12.83,0,.94-.5,1.31-1.69.88-2.63Z"/>
  <path class="cls-1" d="m42.51,52.56c5.13,0,10.33-3.19,10.33-10.26,0-3.69-5.13-12.58-8.2-17.46-1-1.63-3.32-1.63-4.32,0-3,4.94-8.2,13.83-8.2,17.46.06,7.13,5.26,10.26,10.39,10.26Zm-5.01-13.46c.06-.25.31-.44.56-.44.31,0,.5.13.63.38,1.63,3.57,3.69,6.07,6.2,7.39.25.13.38.38.38.63s-.19.5-.44.56c-.75.25-1.56.38-2.25.38-1.75,0-5.82-.56-5.82-5.76-.06-.69.19-1.75.75-3.13Z"/>
  <path class="cls-1" d="m54.53,51.87c2.63-1.25,7.39-3.25,11.7-3.76,2.07-.19,3.44-2.38,2.69-4.32-1-2.5-4.13-2.5-6.76-.81-2.82,1.81-6.32,5.76-8.2,8.07-.38.44.06,1.06.56.81Z"/>
  <path class="cls-1" d="m56.53,43.74c1.38-1.44,3.94-3.82,6.63-5.13,1.25-.63,1.63-2.32.69-3.38-1.19-1.38-3.25-.63-4.51,1.06-1.38,1.81-2.69,5.19-3.38,7.13-.13.31.31.56.56.31Z"/>
  <path class="cls-1" d="m18.79,48.12c4.38.44,9.07,2.5,11.7,3.76.5.25.94-.38.63-.81-1.94-2.32-5.44-6.26-8.2-8.07-2.69-1.69-5.76-1.69-6.76.81-.81,1.94.56,4.13,2.63,4.32Z"/>
  <path class="cls-1" d="m21.86,38.54c2.69,1.31,5.26,3.76,6.63,5.13.25.25.69,0,.56-.38-.69-1.94-2-5.32-3.38-7.13-1.31-1.75-3.32-2.44-4.51-1.06-1,1.13-.63,2.82.69,3.44Z"/>
</svg>