<?xml version="1.0" encoding="UTF-8"?>
<svg id="Layer_1" data-name="Layer 1" xmlns="http://www.w3.org/2000/svg" viewBox="0 0 85 85">
  <defs>
    <style>
      .cls-1 {
        fill: #34354c;
      }
    </style>
  </defs>
  <path class="cls-1" d="m64.67,53.59H20.33c-.55,0-1.06.29-1.35.74-.29.48-.32,1.06-.06,1.55l2.28,4.58c.81,1.62,2.44,2.63,4.26,2.63h34.09c1.82,0,3.45-1.01,4.26-2.63l2.28-4.58c.25-.49.22-1.08-.06-1.55-.29-.46-.79-.74-1.35-.74Z"/>
  <path class="cls-1" d="m20.33,52h44.35c.87,0,1.58-.71,1.58-1.58s-.71-1.58-1.58-1.58h-.08c-.71-10.04-8.13-18.26-17.8-20.16.29-.62.46-1.3.46-2.01,0-2.61-2.14-4.75-4.75-4.75s-4.75,2.14-4.75,4.75c0,.71.17,1.39.46,2.01-9.68,1.9-17.09,10.12-17.8,20.16h-.08c-.87,0-1.58.71-1.58,1.58s.71,1.58,1.58,1.58Zm22.17-26.93c.87,0,1.58.71,1.58,1.58s-.71,1.58-1.58,1.58-1.58-.71-1.58-1.58.71-1.58,1.58-1.58Z"/>
</svg>