<?xml version="1.0" encoding="UTF-8"?>
<svg id="Layer_1" data-name="Layer 1" xmlns="http://www.w3.org/2000/svg" viewBox="0 0 85 85">
  <defs>
    <style>
      .cls-1 {
        fill: #34354c;
      }
    </style>
  </defs>
  <path class="cls-1" d="m31.58,56.07l13.81-5.9c.26-.1.53-.15.79-.15.88,0,1.71.55,2.01,1.45.36,1.08-.24,2.25-1.3,2.67l-6.13,2.47.68,1.68,5.84-2.35c4.55-2.04,8.15-5.83,9.61-10.86.25-.87,1.05-1.45,1.95-1.45.03,0,.05,0,.08,0,1.2.05,2.11,1.12,1.94,2.32-2.16,15.37-16.06,18.83-23.27,20.75l-1.8,5.04h-11.69l2.98-10.56c.65-2.29,2.3-4.17,4.49-5.11Zm13.11-7.59h.02c.47-.2.97-.29,1.48-.29,1.7,0,3.21,1.09,3.75,2.7.13.39.2.79.2,1.19,3.37-2.77,5.51-6.97,5.51-11.67,0-4.44-1.92-8.44-4.97-11.21-2.93-2.66-4.33-6.61-3.62-10.51l.99-5.43h-15.04l1,5.49c.7,3.83-.64,7.77-3.54,10.36-3.27,2.91-5.26,7.22-5.04,11.99.24,5.28,3.23,9.87,7.56,12.38l11.7-5h.02Z"/>
</svg>