<?xml version="1.0" encoding="UTF-8"?>
<svg id="Layer_1" data-name="Layer 1" xmlns="http://www.w3.org/2000/svg" viewBox="0 0 85 85">
  <defs>
    <style>
      .cls-1 {
        fill: #34354c;
      }
    </style>
  </defs>
  <circle class="cls-1" cx="40.45" cy="16.63" r="7.32"/>
  <path class="cls-1" d="m60.46,40.79l-1.71-.73v-3.17c0-.98-.73-1.95-1.95-1.95s-1.95.73-1.95,1.95v1.46l-4.88-2.44-4.88-6.59c-.49-.73-1.46-1.22-2.2-1.46l-9.76-1.71v-2.93c0-1.46-1.22-2.69-2.69-2.69h-5.37c-1.46,0-2.69,1.22-2.69,2.69v20.02c0,1.46,1.22,2.69,2.69,2.69h5.37c0,1.95.98,4.15,2.44,5.37l-3.42,7.81c-.24.73-.98,1.95-1.46,2.44l-5.13,7.81c-1.22,1.71-.73,3.91.98,5.13.73.49,1.46.73,2.2.73,1.22,0,2.2-.49,2.93-1.46l5.37-7.57c.73-.98,1.71-2.69,2.2-3.91l2.69-6.35,4.39,3.17.98,12.94c.24,1.95,1.71,3.42,3.66,3.42h.24c1.95-.24,3.66-1.95,3.42-3.91l-.98-14.65c0-.98-.73-2.2-1.46-2.69l-7.57-5.37v-.49l.49-10.98,2.93,3.91c.24.49.73.73,1.22.98l9.03,4.39v27.09c0,.98.73,1.95,1.95,1.95s1.95-.73,1.95-1.95v-25.87c1.46,0,2.69-.73,3.17-1.95.49-1.95-.24-4.15-2.2-5.13Z"/>
</svg>