<?xml version="1.0" encoding="UTF-8"?>
<svg xmlns="http://www.w3.org/2000/svg" viewBox="0 0 85 85">
  <defs>
    <style>
      .cls-1 {
        fill: #34354c;
      }
    </style>
  </defs>
  <circle class="cls-1" cx="42.5" cy="24" r="12"/>
  <circle class="cls-1" cx="22" cy="32" r="8.5"/>
  <circle class="cls-1" cx="63" cy="32" r="8.5"/>
  <path class="cls-1" d="M15 66c0-11.05 8.95-20 20-20h15c11.05 0 20 8.95 20 20v3c0 3.31-2.69 6-6 6H21c-3.31 0-6-2.69-6-6v-3Z"/>
  <path class="cls-1" d="M6.5 62c0-7.18 5.82-13 13-13h1.8c2.76 0 5 2.24 5 5v4.2c0 2.76-2.24 5-5 5h-1.8c-1.66 0-3 1.34-3 3v1.8c0 1.66-1.34 3-3 3s-3-1.34-3-3v-6Z"/>
  <path class="cls-1" d="M64.7 49h1.8c7.18 0 13 5.82 13 13v6c0 1.66-1.34 3-3 3s-3-1.34-3-3v-1.8c0-1.66-1.34-3-3-3h-1.8c-2.76 0-5-2.24-5-5v-4.2c0-2.76 2.24-5 5-5Z"/>
</svg>
