<?xml version="1.0" encoding="UTF-8"?>
<svg id="Layer_1" data-name="Layer 1" xmlns="http://www.w3.org/2000/svg" viewBox="0 0 85 85">
  <defs>
    <style>
      .cls-1 {
        fill: #34354c;
      }
    </style>
  </defs>
  <path class="cls-1" d="m69.25,24.79c-.88-4.57-5.7-6.26-9.01-6.88.19.69.25,1.31.25,2.07,0,1.44-.38,2.82-1,4.07,1.88.44,3.57,1.19,3.69,1.94.06.44,0,.69-.19.88-1.06,1.31-4.63,2.19-7.26,2.19h-8.26c-2.63,0-6.2-.88-7.26-2.19-.19-.25-.31-.44-.19-.88.13-.81,1.81-1.5,3.69-1.94-.63-1.19-1-2.57-1-4.07,0-.69.06-1.38.25-2.07-3.32.63-8.14,2.32-9.01,6.88-.44,2.19.13,4.26,1.5,5.95,2.13,2.57,5.7,3.63,8.45,4.07-.81,2.25-2.38,6.88-3.57,10.89-3.25-.06-8.95-.19-11.08-.13-1.19,0-2.32.5-3.19,1.38-1.94,2-2.94,7.26-2.94,15.65l-5.57,2.88c-1.75.88-2.44,3.07-1.5,4.82.63,1.25,1.88,1.94,3.19,1.94.56,0,1.13-.13,1.63-.44l25.47-13.27c3.25-1.44,5.07-3.38,5.82-5.32,1.44-3.44,4.82-14.21,6.07-18.27,2.75-.31,7.01-1.31,9.45-4.19,1.44-1.69,1.94-3.76,1.56-5.95ZM30.45,58.83c.13-2.57.38-4.76.69-6.13,3.25.06,8.76.13,10.7.19l-11.39,5.95Z"/>
  <circle class="cls-1" cx="51.6" cy="19.97" r="7.2"/>
</svg>