<?xml version="1.0" encoding="UTF-8"?>
<svg id="Layer_1" data-name="Layer 1" xmlns="http://www.w3.org/2000/svg" viewBox="0 0 85 85">
  <defs>
    <style>
      .cls-1 {
        fill: #34354c;
      }
    </style>
  </defs>
  <path class="cls-1" d="m71.74,34.03c-4.56-11.55-15.81-19.06-28.23-18.82-12.59,0-30.33,9.41-30.33,30.33-.02,4.73,1.09,9.39,3.23,13.6.17.34.52.55.9.55h10.06c1.3,0,2.53-.58,3.37-1.57l14.79,4.44v.16c0,1.12.91,2.02,2.02,2.02v3.03c0,1.12.91,2.02,2.02,2.02h2.02c1.12,0,2.02-.91,2.02-2.02v-3.03c1.12,0,2.02-.91,2.02-2.02v-2.02c0-1.12-.91-2.02-2.02-2.02v-14.15c1.15-.18,2.26-.56,3.28-1.13l14.4-8.11c.45-.25.64-.8.44-1.27Zm-22.16,10.8l2.02-.12v13.97h-2.02v-13.85Zm-4.96.28l2.93-.16v2.02l-2.82.17c-3.42.19-6.51,2.11-8.2,5.09l-.18.3-1.96-.65.38-.67c2.03-3.57,5.73-5.87,9.84-6.1Zm2.93,3.88v7.28l-9.24-3.08c1.36-2.36,3.82-3.88,6.54-4.03l2.7-.17Zm-25.82-14.13c-1.47,2.96-2.3,6.2-2.46,9.5-.03.54-.47.96-1.01.96h-.05c-.56-.03-.99-.5-.96-1.06.17-3.58,1.07-7.09,2.66-10.3,0,0,0,0,0,0,.25-.5.85-.71,1.35-.46,0,0,0,0,0,0,.5.25.71.85.46,1.35Zm2.39-3.88c-.34.45-.97.54-1.42.2-.45-.33-.54-.97-.2-1.42,4.04-5.42,10.02-9.06,16.69-10.16.55-.09,1.07.28,1.16.83.09.55-.28,1.07-.83,1.16-6.16,1.01-11.68,4.37-15.4,9.38Zm23.04,27.74s-.08.02-.12.03c-.08.02-.17.05-.25.08-.05.02-.09.04-.13.06-.07.03-.14.07-.2.11-.04.03-.08.06-.12.09-.06.04-.12.09-.17.14-.04.04-.07.08-.11.12-.05.05-.09.11-.13.16-.03.04-.06.09-.09.14-.04.06-.07.12-.1.18-.03.05-.05.1-.07.16-.02.07-.04.13-.06.2-.02.06-.03.12-.04.17,0,.03-.02.06-.02.08l-13.69-4.12,1.53-2.67,14.17,4.72v.28c-.13,0-.26.01-.39.04Zm4.44,9.06h-2.02v-3.03h2.02v3.03Zm2.02-5.06h-6.07v-2.02h6.07v2.02Z"/>
</svg>