<svg xmlns="http://www.w3.org/2000/svg" xmlns:xlink="http://www.w3.org/1999/xlink" width="492" zoomAndPan="magnify" viewBox="0 0 369 368.999991" height="492" preserveAspectRatio="xMidYMid meet" version="1.0"><defs><clipPath id="9495b9faa9"><path d="M 9.183594 169 L 96.605469 169 L 96.605469 297.847656 L 9.183594 297.847656 Z M 9.183594 169 " clip-rule="nonzero"/></clipPath><clipPath id="e243d8b776"><path d="M 87.507812 169.011719 L 18.285156 169.011719 C 13.398438 169.011719 9.457031 172.953125 9.457031 177.835938 L 9.457031 288.816406 C 9.457031 293.746094 13.398438 297.640625 18.285156 297.640625 L 87.492188 297.640625 C 92.375 297.640625 96.316406 293.761719 96.316406 288.816406 L 96.347656 177.914062 C 96.410156 173.027344 92.375 169.011719 87.523438 169.011719 Z M 87.507812 169.011719 " clip-rule="nonzero"/></clipPath><clipPath id="4f82da29a5"><path d="M 0.28125 0 L 87.605469 0 L 87.605469 128.761719 L 0.28125 128.761719 Z M 0.28125 0 " clip-rule="nonzero"/></clipPath><clipPath id="a2a00bf5b2"><path d="M 78.507812 0.0117188 L 9.285156 0.0117188 C 4.398438 0.0117188 0.457031 3.953125 0.457031 8.835938 L 0.457031 119.816406 C 0.457031 124.746094 4.398438 128.640625 9.285156 128.640625 L 78.492188 128.640625 C 83.375 128.640625 87.316406 124.761719 87.316406 119.816406 L 87.347656 8.914062 C 87.410156 4.027344 83.375 0.0117188 78.523438 0.0117188 Z M 78.507812 0.0117188 " clip-rule="nonzero"/></clipPath><clipPath id="d9189253cb"><rect x="0" width="88" y="0" height="129"/></clipPath><clipPath id="0e0fe37f4f"><path d="M 8.375 168 L 97.414062 168 L 97.414062 298.65625 L 8.375 298.65625 Z M 8.375 168 " clip-rule="nonzero"/></clipPath><clipPath id="10524ecb4e"><path d="M 87.507812 169.773438 L 18.285156 169.773438 L 18.285156 169.011719 L 18.285156 169.773438 C 13.824219 169.773438 10.21875 173.378906 10.21875 177.835938 L 9.457031 177.835938 L 10.21875 177.835938 L 10.21875 288.816406 L 9.457031 288.816406 L 10.21875 288.816406 C 10.21875 293.320312 13.8125 296.878906 18.285156 296.878906 L 18.285156 297.640625 L 18.285156 296.878906 L 87.492188 296.878906 L 87.492188 297.640625 L 87.492188 296.878906 C 91.949219 296.878906 95.558594 293.335938 95.558594 288.816406 L 95.585938 177.914062 C 95.632812 173.484375 92.011719 169.832031 87.613281 169.785156 C 87.582031 169.785156 87.554688 169.785156 87.523438 169.785156 L 87.523438 169.011719 L 88.28125 169.011719 L 88.28125 169.773438 L 87.523438 169.773438 M 87.523438 168.25 L 87.523438 169.011719 L 86.761719 169.011719 L 86.761719 168.25 L 87.523438 168.25 C 87.554688 168.25 87.597656 168.25 87.628906 168.25 C 92.847656 168.3125 97.15625 172.648438 97.109375 177.929688 L 96.347656 177.914062 L 97.109375 177.914062 L 97.078125 288.816406 L 96.316406 288.816406 L 97.078125 288.816406 C 97.078125 294.171875 92.789062 298.402344 87.492188 298.402344 L 18.285156 298.402344 C 12.988281 298.402344 8.699219 294.171875 8.699219 288.816406 L 8.699219 177.835938 C 8.699219 172.542969 12.972656 168.25 18.285156 168.25 Z M 87.523438 168.25 " clip-rule="nonzero"/></clipPath><clipPath id="980b234e69"><path d="M 0.558594 0.160156 L 89.359375 0.160156 L 89.359375 130.480469 L 0.558594 130.480469 Z M 0.558594 0.160156 " clip-rule="nonzero"/></clipPath><clipPath id="4c91d3b6f8"><path d="M 79.507812 1.773438 L 10.285156 1.773438 L 10.285156 1.011719 L 10.285156 1.773438 C 5.824219 1.773438 2.21875 5.378906 2.21875 9.835938 L 1.457031 9.835938 L 2.21875 9.835938 L 2.21875 120.816406 L 1.457031 120.816406 L 2.21875 120.816406 C 2.21875 125.320312 5.8125 128.878906 10.285156 128.878906 L 10.285156 129.640625 L 10.285156 128.878906 L 79.492188 128.878906 L 79.492188 129.640625 L 79.492188 128.878906 C 83.949219 128.878906 87.558594 125.335938 87.558594 120.816406 L 87.585938 9.914062 C 87.632812 5.484375 84.011719 1.832031 79.613281 1.785156 C 79.582031 1.785156 79.554688 1.785156 79.523438 1.785156 L 79.523438 1.011719 L 80.28125 1.011719 L 80.28125 1.773438 L 79.523438 1.773438 M 79.523438 0.25 L 79.523438 1.011719 L 78.761719 1.011719 L 78.761719 0.25 L 79.523438 0.25 C 79.554688 0.25 79.597656 0.25 79.628906 0.25 C 84.847656 0.3125 89.15625 4.648438 89.109375 9.929688 L 88.347656 9.914062 L 89.109375 9.914062 L 89.078125 120.816406 L 88.316406 120.816406 L 89.078125 120.816406 C 89.078125 126.171875 84.789062 130.402344 79.492188 130.402344 L 10.285156 130.402344 C 4.988281 130.402344 0.699219 126.171875 0.699219 120.816406 L 0.699219 9.835938 C 0.699219 4.542969 4.972656 0.25 10.285156 0.25 Z M 79.523438 0.25 " clip-rule="nonzero"/></clipPath><clipPath id="9f49d1457c"><rect x="0" width="90" y="0" height="131"/></clipPath><clipPath id="c56668459f"><path d="M 138.574219 89.585938 L 225.929688 89.585938 L 225.929688 297.859375 L 138.574219 297.859375 Z M 138.574219 89.585938 " clip-rule="nonzero"/></clipPath><clipPath id="710d64517c"><path d="M 216.828125 89.863281 L 147.683594 89.863281 C 142.753906 89.863281 138.855469 93.746094 138.855469 98.691406 L 138.855469 288.902344 C 138.855469 293.832031 142.738281 297.730469 147.683594 297.730469 L 216.828125 297.730469 C 221.714844 297.730469 225.65625 293.847656 225.65625 288.902344 L 225.65625 98.691406 C 225.730469 93.761719 221.714844 89.863281 216.828125 89.863281 " clip-rule="nonzero"/></clipPath><clipPath id="f383ffbfe6"><path d="M 0.640625 0.679688 L 87.761719 0.679688 L 87.761719 208.761719 L 0.640625 208.761719 Z M 0.640625 0.679688 " clip-rule="nonzero"/></clipPath><clipPath id="6c09325b4a"><path d="M 78.828125 0.863281 L 9.683594 0.863281 C 4.753906 0.863281 0.855469 4.746094 0.855469 9.691406 L 0.855469 199.902344 C 0.855469 204.832031 4.738281 208.730469 9.683594 208.730469 L 78.828125 208.730469 C 83.714844 208.730469 87.65625 204.847656 87.65625 199.902344 L 87.65625 9.691406 C 87.730469 4.761719 83.714844 0.863281 78.828125 0.863281 " clip-rule="nonzero"/></clipPath><clipPath id="47a6ce5225"><rect x="0" width="88" y="0" height="209"/></clipPath><clipPath id="60796156fd"><path d="M 138 89 L 226.738281 89 L 226.738281 298.667969 L 138 298.667969 Z M 138 89 " clip-rule="nonzero"/></clipPath><clipPath id="3b3b121804"><path d="M 216.828125 90.625 L 147.683594 90.625 L 147.683594 89.863281 L 147.683594 90.625 C 143.164062 90.625 139.617188 94.171875 139.617188 98.691406 L 138.855469 98.691406 L 139.617188 98.691406 L 139.617188 288.902344 L 138.855469 288.902344 L 139.617188 288.902344 C 139.617188 293.421875 143.164062 296.96875 147.683594 296.96875 L 147.683594 297.730469 L 147.683594 296.96875 L 216.828125 296.96875 L 216.828125 297.730469 L 216.828125 296.96875 C 221.289062 296.96875 224.894531 293.421875 224.894531 288.902344 L 225.65625 288.902344 L 224.894531 288.902344 L 224.894531 98.691406 C 224.96875 94.246094 221.378906 90.71875 216.980469 90.640625 C 216.933594 90.640625 216.890625 90.640625 216.84375 90.640625 L 216.84375 89.863281 L 216.84375 90.625 M 216.84375 89.105469 C 216.90625 89.105469 216.949219 89.105469 217.011719 89.105469 C 222.214844 89.195312 226.523438 93.378906 226.429688 98.691406 L 225.671875 98.675781 L 226.429688 98.675781 L 226.429688 288.902344 C 226.429688 294.257812 222.140625 298.488281 216.84375 298.488281 L 147.683594 298.488281 C 142.328125 298.488281 138.097656 294.257812 138.097656 288.902344 L 138.097656 98.691406 C 138.097656 93.335938 142.328125 89.105469 147.683594 89.105469 Z M 216.84375 89.105469 " clip-rule="nonzero"/></clipPath><clipPath id="dba1dda1ca"><path d="M 0 0 L 88.71875 0 L 88.71875 209.667969 L 0 209.667969 Z M 0 0 " clip-rule="nonzero"/></clipPath><clipPath id="f4a600eb71"><path d="M 78.828125 1.625 L 9.683594 1.625 L 9.683594 0.863281 L 9.683594 1.625 C 5.164062 1.625 1.617188 5.171875 1.617188 9.691406 L 0.855469 9.691406 L 1.617188 9.691406 L 1.617188 199.902344 L 0.855469 199.902344 L 1.617188 199.902344 C 1.617188 204.421875 5.164062 207.96875 9.683594 207.96875 L 9.683594 208.730469 L 9.683594 207.96875 L 78.828125 207.96875 L 78.828125 208.730469 L 78.828125 207.96875 C 83.289062 207.96875 86.894531 204.421875 86.894531 199.902344 L 87.65625 199.902344 L 86.894531 199.902344 L 86.894531 9.691406 C 86.96875 5.246094 83.378906 1.71875 78.980469 1.640625 C 78.933594 1.640625 78.890625 1.640625 78.84375 1.640625 L 78.84375 0.863281 L 78.84375 1.625 M 78.84375 0.105469 C 78.90625 0.105469 78.949219 0.105469 79.011719 0.105469 C 84.214844 0.195312 88.523438 4.378906 88.429688 9.691406 L 87.671875 9.675781 L 88.429688 9.675781 L 88.429688 199.902344 C 88.429688 205.257812 84.140625 209.488281 78.84375 209.488281 L 9.683594 209.488281 C 4.328125 209.488281 0.0976562 205.257812 0.0976562 199.902344 L 0.0976562 9.691406 C 0.0976562 4.335938 4.328125 0.105469 9.683594 0.105469 Z M 78.84375 0.105469 " clip-rule="nonzero"/></clipPath><clipPath id="fb56405d56"><rect x="0" width="89" y="0" height="210"/></clipPath><clipPath id="77d4b979df"><path d="M 268.417969 9 L 355.816406 9 L 355.816406 298 L 268.417969 298 Z M 268.417969 9 " clip-rule="nonzero"/></clipPath><clipPath id="2d7480af93"><path d="M 346.714844 9 L 277.523438 9 C 272.636719 9 268.695312 12.941406 268.695312 17.828125 L 268.695312 288.828125 C 268.695312 293.757812 272.636719 297.652344 277.523438 297.652344 L 346.714844 297.652344 C 351.597656 297.652344 355.539062 293.773438 355.539062 288.828125 L 355.539062 17.902344 C 355.539062 13.019531 351.597656 9 346.714844 9 Z M 346.714844 9 " clip-rule="nonzero"/></clipPath><clipPath id="aca85694d5"><path d="M 0.480469 0 L 87.601562 0 L 87.601562 288.761719 L 0.480469 288.761719 Z M 0.480469 0 " clip-rule="nonzero"/></clipPath><clipPath id="6fe94e7d83"><path d="M 78.714844 0 L 9.523438 0 C 4.636719 0 0.695312 3.941406 0.695312 8.828125 L 0.695312 279.828125 C 0.695312 284.757812 4.636719 288.652344 9.523438 288.652344 L 78.714844 288.652344 C 83.597656 288.652344 87.539062 284.773438 87.539062 279.828125 L 87.539062 8.902344 C 87.539062 4.019531 83.597656 0 78.714844 0 Z M 78.714844 0 " clip-rule="nonzero"/></clipPath><clipPath id="5d41a24bb5"><rect x="0" width="88" y="0" height="289"/></clipPath><clipPath id="ba595fa88f"><path d="M 267.609375 8 L 356.628906 8 L 356.628906 298.433594 L 267.609375 298.433594 Z M 267.609375 8 " clip-rule="nonzero"/></clipPath><clipPath id="f4d02539da"><path d="M 346.714844 9.761719 L 277.523438 9.761719 L 277.523438 9 L 277.523438 9.761719 C 273.0625 9.761719 269.457031 13.367188 269.457031 17.828125 L 268.695312 17.828125 L 269.457031 17.828125 L 269.457031 288.828125 L 268.695312 288.828125 L 269.457031 288.828125 C 269.457031 293.332031 273.046875 296.890625 277.523438 296.890625 L 277.523438 297.652344 L 277.523438 296.890625 L 346.714844 296.890625 L 346.714844 297.652344 L 346.714844 296.890625 C 351.171875 296.890625 354.777344 293.347656 354.777344 288.828125 L 355.539062 288.828125 L 354.777344 288.828125 L 354.777344 17.902344 L 355.539062 17.902344 L 354.777344 17.902344 C 354.777344 13.445312 351.171875 9.761719 346.714844 9.761719 L 345.953125 9.761719 L 345.953125 9 L 346.714844 9 L 346.714844 9.761719 M 346.714844 8.238281 L 347.476562 8.238281 L 347.476562 9 L 346.714844 9 L 346.714844 8.238281 C 352.023438 8.238281 356.300781 12.605469 356.300781 17.902344 L 356.300781 288.828125 C 356.300781 294.183594 352.007812 298.414062 346.714844 298.414062 L 277.523438 298.414062 C 272.226562 298.414062 267.933594 294.183594 267.933594 288.828125 L 267.933594 17.828125 C 267.933594 12.515625 272.210938 8.238281 277.523438 8.238281 Z M 346.714844 8.238281 " clip-rule="nonzero"/></clipPath><clipPath id="5f21608e28"><path d="M 0.761719 0.078125 L 89.320312 0.078125 L 89.320312 290.433594 L 0.761719 290.433594 Z M 0.761719 0.078125 " clip-rule="nonzero"/></clipPath><clipPath id="86ce02c202"><path d="M 79.714844 1.761719 L 10.523438 1.761719 L 10.523438 1 L 10.523438 1.761719 C 6.0625 1.761719 2.457031 5.367188 2.457031 9.828125 L 1.695312 9.828125 L 2.457031 9.828125 L 2.457031 280.828125 L 1.695312 280.828125 L 2.457031 280.828125 C 2.457031 285.332031 6.046875 288.890625 10.523438 288.890625 L 10.523438 289.652344 L 10.523438 288.890625 L 79.714844 288.890625 L 79.714844 289.652344 L 79.714844 288.890625 C 84.171875 288.890625 87.777344 285.347656 87.777344 280.828125 L 88.539062 280.828125 L 87.777344 280.828125 L 87.777344 9.902344 L 88.539062 9.902344 L 87.777344 9.902344 C 87.777344 5.445312 84.171875 1.761719 79.714844 1.761719 L 78.953125 1.761719 L 78.953125 1 L 79.714844 1 L 79.714844 1.761719 M 79.714844 0.238281 L 80.476562 0.238281 L 80.476562 1 L 79.714844 1 L 79.714844 0.238281 C 85.023438 0.238281 89.300781 4.605469 89.300781 9.902344 L 89.300781 280.828125 C 89.300781 286.183594 85.007812 290.414062 79.714844 290.414062 L 10.523438 290.414062 C 5.226562 290.414062 0.933594 286.183594 0.933594 280.828125 L 0.933594 9.828125 C 0.933594 4.515625 5.210938 0.238281 10.523438 0.238281 Z M 79.714844 0.238281 " clip-rule="nonzero"/></clipPath><clipPath id="fe5158f87f"><rect x="0" width="90" y="0" height="291"/></clipPath><clipPath id="82c5e9fad1"><rect x="0" width="364" y="0" height="307"/></clipPath></defs><g transform="matrix(1, 0, 0, 1, 2, 26)"><g clip-path="url(#82c5e9fad1)"><g clip-path="url(#9495b9faa9)"><g clip-path="url(#e243d8b776)"><g transform="matrix(1, 0, 0, 1, 9, 169)"><g clip-path="url(#d9189253cb)"><g clip-path="url(#4f82da29a5)"><g clip-path="url(#a2a00bf5b2)"><rect x="-145.316" width="637.632" fill="#000000" y="-329.315997" height="637.631984" fill-opacity="1"/></g></g></g></g></g></g><g clip-path="url(#0e0fe37f4f)"><g clip-path="url(#10524ecb4e)"><g transform="matrix(1, 0, 0, 1, 8, 168)"><g clip-path="url(#9f49d1457c)"><g clip-path="url(#980b234e69)"><g clip-path="url(#4c91d3b6f8)"><rect x="-144.316" width="637.632" fill="#000000" y="-328.315997" height="637.631984" fill-opacity="1"/></g></g></g></g></g></g><g clip-path="url(#c56668459f)"><g clip-path="url(#710d64517c)"><g transform="matrix(1, 0, 0, 1, 138, 89)"><g clip-path="url(#47a6ce5225)"><g clip-path="url(#f383ffbfe6)"><g clip-path="url(#6c09325b4a)"><rect x="-274.316" width="637.632" fill="#000000" y="-249.315997" height="637.631984" fill-opacity="1"/></g></g></g></g></g></g><g clip-path="url(#60796156fd)"><g clip-path="url(#3b3b121804)"><g transform="matrix(1, 0, 0, 1, 138, 89)"><g clip-path="url(#fb56405d56)"><g clip-path="url(#dba1dda1ca)"><g clip-path="url(#f4a600eb71)"><rect x="-274.316" width="637.632" fill="#000000" y="-249.315997" height="637.631984" fill-opacity="1"/></g></g></g></g></g></g><g clip-path="url(#77d4b979df)"><g clip-path="url(#2d7480af93)"><g transform="matrix(1, 0, 0, 1, 268, 9)"><g clip-path="url(#5d41a24bb5)"><g clip-path="url(#aca85694d5)"><g clip-path="url(#6fe94e7d83)"><rect x="-404.316" width="637.632" fill="#000000" y="-169.315997" height="637.631984" fill-opacity="1"/></g></g></g></g></g></g><g clip-path="url(#ba595fa88f)"><g clip-path="url(#f4d02539da)"><g transform="matrix(1, 0, 0, 1, 267, 8)"><g clip-path="url(#fe5158f87f)"><g clip-path="url(#5f21608e28)"><g clip-path="url(#86ce02c202)"><rect x="-403.316" width="637.632" fill="#000000" y="-168.315997" height="637.631984" fill-opacity="1"/></g></g></g></g></g></g></g></g></svg>