<svg xmlns="http://www.w3.org/2000/svg" xmlns:xlink="http://www.w3.org/1999/xlink" width="492" zoomAndPan="magnify" viewBox="0 0 369 368.999991" height="492" preserveAspectRatio="xMidYMid meet" version="1.0"><defs><clipPath id="50041fee9e"><path d="M 8.035156 161.710938 L 94.804688 161.710938 L 94.804688 289.863281 L 8.035156 289.863281 Z M 8.035156 161.710938 " clip-rule="nonzero"/></clipPath><clipPath id="75cc4be5fe"><path d="M 85.773438 161.984375 L 17.066406 161.984375 C 12.21875 161.984375 8.308594 165.898438 8.308594 170.746094 L 8.308594 280.898438 C 8.308594 285.792969 12.21875 289.660156 17.066406 289.660156 L 85.761719 289.660156 C 90.609375 289.660156 94.519531 285.808594 94.519531 280.898438 L 94.550781 170.820312 C 94.609375 165.972656 90.609375 161.984375 85.789062 161.984375 Z M 85.773438 161.984375 " clip-rule="nonzero"/></clipPath><clipPath id="e13293ce4e"><path d="M 0.160156 0.761719 L 86.800781 0.761719 L 86.800781 128.679688 L 0.160156 128.679688 Z M 0.160156 0.761719 " clip-rule="nonzero"/></clipPath><clipPath id="9329770c5e"><path d="M 77.773438 0.984375 L 9.066406 0.984375 C 4.21875 0.984375 0.308594 4.898438 0.308594 9.746094 L 0.308594 119.898438 C 0.308594 124.792969 4.21875 128.660156 9.066406 128.660156 L 77.761719 128.660156 C 82.609375 128.660156 86.519531 124.808594 86.519531 119.898438 L 86.550781 9.820312 C 86.609375 4.972656 82.609375 0.984375 77.789062 0.984375 Z M 77.773438 0.984375 " clip-rule="nonzero"/></clipPath><clipPath id="f28ef61e23"><rect x="0" width="87" y="0" height="129"/></clipPath><clipPath id="53198586d1"><path d="M 7.230469 161 L 95.609375 161 L 95.609375 290.664062 L 7.230469 290.664062 Z M 7.230469 161 " clip-rule="nonzero"/></clipPath><clipPath id="e3b66269eb"><path d="M 85.773438 162.742188 L 17.066406 162.742188 L 17.066406 161.984375 L 17.066406 162.742188 C 12.640625 162.742188 9.0625 166.320312 9.0625 170.746094 L 8.308594 170.746094 L 9.0625 170.746094 L 9.0625 280.898438 L 8.308594 280.898438 L 9.0625 280.898438 C 9.0625 285.371094 12.625 288.902344 17.066406 288.902344 L 17.066406 289.660156 L 17.066406 288.902344 L 85.761719 288.902344 L 85.761719 289.660156 L 85.761719 288.902344 C 90.183594 288.902344 93.765625 285.382812 93.765625 280.898438 L 93.796875 170.820312 C 93.839844 166.425781 90.246094 162.800781 85.878906 162.757812 C 85.851562 162.757812 85.820312 162.757812 85.789062 162.757812 L 85.789062 161.984375 L 86.546875 161.984375 L 86.546875 162.742188 L 85.789062 162.742188 M 85.789062 161.230469 L 85.789062 161.984375 L 85.035156 161.984375 L 85.035156 161.230469 L 85.789062 161.230469 C 85.820312 161.230469 85.867188 161.230469 85.894531 161.230469 C 91.078125 161.289062 95.351562 165.59375 95.304688 170.835938 L 94.550781 170.820312 L 95.304688 170.820312 L 95.273438 280.898438 L 94.519531 280.898438 L 95.273438 280.898438 C 95.273438 286.214844 91.015625 290.414062 85.761719 290.414062 L 17.066406 290.414062 C 11.8125 290.414062 7.550781 286.214844 7.550781 280.898438 L 7.550781 170.746094 C 7.550781 165.488281 11.796875 161.230469 17.066406 161.230469 Z M 85.789062 161.230469 " clip-rule="nonzero"/></clipPath><clipPath id="397a38408f"><path d="M 0.441406 0.0390625 L 88.519531 0.0390625 L 88.519531 129.640625 L 0.441406 129.640625 Z M 0.441406 0.0390625 " clip-rule="nonzero"/></clipPath><clipPath id="b42f694c00"><path d="M 78.773438 1.742188 L 10.066406 1.742188 L 10.066406 0.984375 L 10.066406 1.742188 C 5.640625 1.742188 2.0625 5.320312 2.0625 9.746094 L 1.308594 9.746094 L 2.0625 9.746094 L 2.0625 119.898438 L 1.308594 119.898438 L 2.0625 119.898438 C 2.0625 124.371094 5.625 127.902344 10.066406 127.902344 L 10.066406 128.660156 L 10.066406 127.902344 L 78.761719 127.902344 L 78.761719 128.660156 L 78.761719 127.902344 C 83.183594 127.902344 86.765625 124.382812 86.765625 119.898438 L 86.796875 9.820312 C 86.839844 5.425781 83.246094 1.800781 78.878906 1.757812 C 78.851562 1.757812 78.820312 1.757812 78.789062 1.757812 L 78.789062 0.984375 L 79.546875 0.984375 L 79.546875 1.742188 L 78.789062 1.742188 M 78.789062 0.230469 L 78.789062 0.984375 L 78.035156 0.984375 L 78.035156 0.230469 L 78.789062 0.230469 C 78.820312 0.230469 78.867188 0.230469 78.894531 0.230469 C 84.078125 0.289062 88.351562 4.59375 88.304688 9.835938 L 87.550781 9.820312 L 88.304688 9.820312 L 88.273438 119.898438 L 87.519531 119.898438 L 88.273438 119.898438 C 88.273438 125.214844 84.015625 129.414062 78.761719 129.414062 L 10.066406 129.414062 C 4.8125 129.414062 0.550781 125.214844 0.550781 119.898438 L 0.550781 9.746094 C 0.550781 4.488281 4.796875 0.230469 10.066406 0.230469 Z M 78.789062 0.230469 " clip-rule="nonzero"/></clipPath><clipPath id="80b333973c"><rect x="0" width="89" y="0" height="130"/></clipPath><clipPath id="3ba764a786"><path d="M 134.476562 81.164062 L 225.507812 81.164062 L 225.507812 292.269531 L 134.476562 292.269531 Z M 134.476562 81.164062 " clip-rule="nonzero"/></clipPath><clipPath id="df419a87b3"><path d="M 214.136719 85.695312 L 145.503906 85.695312 L 145.503906 83.429688 L 145.503906 85.695312 C 141.847656 85.695312 139.007812 88.535156 139.007812 92.1875 L 136.742188 92.1875 L 139.007812 92.1875 L 139.007812 280.988281 L 136.742188 280.988281 L 139.007812 280.988281 C 139.007812 284.625 141.847656 287.480469 145.503906 287.480469 L 145.503906 289.746094 L 145.503906 287.480469 L 214.136719 287.480469 L 214.136719 289.746094 L 214.136719 287.480469 C 217.730469 287.480469 220.628906 284.625 220.628906 280.988281 L 222.894531 280.988281 L 220.628906 280.988281 L 220.628906 92.144531 C 220.691406 88.609375 217.835938 85.753906 214.253906 85.695312 C 214.210938 85.695312 214.179688 85.695312 214.136719 85.695312 L 214.136719 83.429688 L 214.136719 85.695312 M 214.136719 81.164062 C 214.195312 81.164062 214.253906 81.164062 214.332031 81.164062 C 220.296875 81.269531 225.265625 86.054688 225.160156 92.21875 L 222.894531 92.1875 L 225.160156 92.1875 L 225.160156 280.988281 C 225.160156 287.148438 220.222656 292.011719 214.136719 292.011719 L 145.503906 292.011719 C 139.355469 292.011719 134.476562 287.132812 134.476562 280.988281 L 134.476562 92.1875 C 134.476562 86.042969 139.355469 81.164062 145.503906 81.164062 Z M 214.136719 81.164062 " clip-rule="nonzero"/></clipPath><clipPath id="68319b0ec1"><path d="M 0.476562 0.164062 L 91.359375 0.164062 L 91.359375 211 L 0.476562 211 Z M 0.476562 0.164062 " clip-rule="nonzero"/></clipPath><clipPath id="4a44c164b8"><path d="M 80.136719 4.695312 L 11.503906 4.695312 L 11.503906 2.429688 L 11.503906 4.695312 C 7.847656 4.695312 5.007812 7.535156 5.007812 11.1875 L 2.742188 11.1875 L 5.007812 11.1875 L 5.007812 199.988281 L 2.742188 199.988281 L 5.007812 199.988281 C 5.007812 203.625 7.847656 206.480469 11.503906 206.480469 L 11.503906 208.746094 L 11.503906 206.480469 L 80.136719 206.480469 L 80.136719 208.746094 L 80.136719 206.480469 C 83.730469 206.480469 86.628906 203.625 86.628906 199.988281 L 88.894531 199.988281 L 86.628906 199.988281 L 86.628906 11.144531 C 86.691406 7.609375 83.835938 4.753906 80.253906 4.695312 C 80.210938 4.695312 80.179688 4.695312 80.136719 4.695312 L 80.136719 2.429688 L 80.136719 4.695312 M 80.136719 0.164062 C 80.195312 0.164062 80.253906 0.164062 80.332031 0.164062 C 86.296875 0.269531 91.265625 5.054688 91.160156 11.21875 L 88.894531 11.1875 L 91.160156 11.1875 L 91.160156 199.988281 C 91.160156 206.148438 86.222656 211.011719 80.136719 211.011719 L 11.503906 211.011719 C 5.355469 211.011719 0.476562 206.132812 0.476562 199.988281 L 0.476562 11.1875 C 0.476562 5.042969 5.355469 0.164062 11.503906 0.164062 Z M 80.136719 0.164062 " clip-rule="nonzero"/></clipPath><clipPath id="08ec871ef4"><rect x="0" width="92" y="0" height="212"/></clipPath><clipPath id="ae2da20c9c"><path d="M 263.351562 0.898438 L 354.082031 0.898438 L 354.082031 292 L 263.351562 292 Z M 263.351562 0.898438 " clip-rule="nonzero"/></clipPath><clipPath id="848c118abc"><path d="M 343.054688 5.429688 L 274.375 5.429688 L 274.375 3.164062 L 274.375 5.429688 C 270.78125 5.429688 267.882812 8.332031 267.882812 11.925781 L 265.617188 11.925781 L 267.882812 11.925781 L 267.882812 280.910156 L 265.617188 280.910156 L 267.882812 280.910156 C 267.882812 284.550781 270.765625 287.40625 274.375 287.40625 L 274.375 289.671875 L 274.375 287.40625 L 343.054688 287.40625 L 343.054688 289.671875 L 343.054688 287.40625 C 346.648438 287.40625 349.546875 284.550781 349.546875 280.910156 L 351.8125 280.910156 L 349.546875 280.910156 L 349.546875 12 L 351.8125 12 L 349.546875 12 C 349.546875 8.390625 346.617188 5.429688 343.054688 5.429688 L 340.789062 5.429688 L 340.789062 3.164062 L 343.054688 3.164062 L 343.054688 5.429688 M 343.054688 0.898438 L 345.320312 0.898438 L 345.320312 3.164062 L 343.054688 3.164062 L 343.054688 0.898438 C 349.171875 0.898438 354.078125 5.929688 354.078125 12 L 354.078125 280.910156 C 354.078125 287.074219 349.140625 291.9375 343.054688 291.9375 L 274.375 291.9375 C 268.289062 291.9375 263.351562 287.074219 263.351562 280.910156 L 263.351562 11.925781 C 263.351562 5.824219 268.273438 0.898438 274.375 0.898438 Z M 343.054688 0.898438 " clip-rule="nonzero"/></clipPath><clipPath id="29d17a6371"><path d="M 0.351562 0.898438 L 91.082031 0.898438 L 91.082031 292 L 0.351562 292 Z M 0.351562 0.898438 " clip-rule="nonzero"/></clipPath><clipPath id="cb5395f33f"><path d="M 80.054688 5.429688 L 11.375 5.429688 L 11.375 3.164062 L 11.375 5.429688 C 7.78125 5.429688 4.882812 8.332031 4.882812 11.925781 L 2.617188 11.925781 L 4.882812 11.925781 L 4.882812 280.910156 L 2.617188 280.910156 L 4.882812 280.910156 C 4.882812 284.550781 7.765625 287.40625 11.375 287.40625 L 11.375 289.671875 L 11.375 287.40625 L 80.054688 287.40625 L 80.054688 289.671875 L 80.054688 287.40625 C 83.648438 287.40625 86.546875 284.550781 86.546875 280.910156 L 88.8125 280.910156 L 86.546875 280.910156 L 86.546875 12 L 88.8125 12 L 86.546875 12 C 86.546875 8.390625 83.617188 5.429688 80.054688 5.429688 L 77.789062 5.429688 L 77.789062 3.164062 L 80.054688 3.164062 L 80.054688 5.429688 M 80.054688 0.898438 L 82.320312 0.898438 L 82.320312 3.164062 L 80.054688 3.164062 L 80.054688 0.898438 C 86.171875 0.898438 91.078125 5.929688 91.078125 12 L 91.078125 280.910156 C 91.078125 287.074219 86.140625 291.9375 80.054688 291.9375 L 11.375 291.9375 C 5.289062 291.9375 0.351562 287.074219 0.351562 280.910156 L 0.351562 11.925781 C 0.351562 5.824219 5.273438 0.898438 11.375 0.898438 Z M 80.054688 0.898438 " clip-rule="nonzero"/></clipPath><clipPath id="b0d6121153"><rect x="0" width="92" y="0" height="292"/></clipPath><clipPath id="d689832793"><rect x="0" width="355" y="0" height="299"/></clipPath></defs><g transform="matrix(1, 0, 0, 1, 0, 36)"><g clip-path="url(#d689832793)"><g clip-path="url(#50041fee9e)"><g clip-path="url(#75cc4be5fe)"><g transform="matrix(1, 0, 0, 1, 8, 161)"><g clip-path="url(#f28ef61e23)"><g clip-path="url(#e13293ce4e)"><g clip-path="url(#9329770c5e)"><rect x="-142.316" width="637.632" fill="#000000" y="-331.315997" height="637.631984" fill-opacity="1"/></g></g></g></g></g></g><g clip-path="url(#53198586d1)"><g clip-path="url(#e3b66269eb)"><g transform="matrix(1, 0, 0, 1, 7, 161)"><g clip-path="url(#80b333973c)"><g clip-path="url(#397a38408f)"><g clip-path="url(#b42f694c00)"><rect x="-141.316" width="637.632" fill="#000000" y="-331.315997" height="637.631984" fill-opacity="1"/></g></g></g></g></g></g><g clip-path="url(#3ba764a786)"><g clip-path="url(#df419a87b3)"><g transform="matrix(1, 0, 0, 1, 134, 81)"><g clip-path="url(#08ec871ef4)"><g clip-path="url(#68319b0ec1)"><g clip-path="url(#4a44c164b8)"><path fill="#000000" d="M 0.476562 0.164062 L 91.15625 0.164062 L 91.15625 210.917969 L 0.476562 210.917969 Z M 0.476562 0.164062 " fill-opacity="1" fill-rule="nonzero"/></g></g></g></g></g></g><g clip-path="url(#ae2da20c9c)"><g clip-path="url(#848c118abc)"><g transform="matrix(1, 0, 0, 1, 263, -0.000000000000007105)"><g clip-path="url(#b0d6121153)"><g clip-path="url(#29d17a6371)"><g clip-path="url(#cb5395f33f)"><path fill="#000000" d="M 0.351562 0.898438 L 91.082031 0.898438 L 91.082031 291.875 L 0.351562 291.875 Z M 0.351562 0.898438 " fill-opacity="1" fill-rule="nonzero"/></g></g></g></g></g></g></g></g></svg>