<svg xmlns="http://www.w3.org/2000/svg" xmlns:xlink="http://www.w3.org/1999/xlink" width="492" zoomAndPan="magnify" viewBox="0 0 369 368.999991" height="492" preserveAspectRatio="xMidYMid meet" version="1.0"><defs><clipPath id="75f54fcf01"><path d="M 8.046875 161.242188 L 94.957031 161.242188 L 94.957031 289.597656 L 8.046875 289.597656 Z M 8.046875 161.242188 " clip-rule="nonzero"/></clipPath><clipPath id="d6ffba53ed"><path d="M 85.914062 161.515625 L 17.09375 161.515625 C 12.238281 161.515625 8.320312 165.433594 8.320312 170.292969 L 8.320312 280.621094 C 8.320312 285.523438 12.238281 289.394531 17.09375 289.394531 L 85.898438 289.394531 C 90.753906 289.394531 94.671875 285.535156 94.671875 280.621094 L 94.703125 170.367188 C 94.761719 165.511719 90.753906 161.515625 85.925781 161.515625 Z M 85.914062 161.515625 " clip-rule="nonzero"/></clipPath><clipPath id="c114b8540c"><path d="M 0.160156 0.320312 L 86.800781 0.320312 L 86.800781 128.480469 L 0.160156 128.480469 Z M 0.160156 0.320312 " clip-rule="nonzero"/></clipPath><clipPath id="41bc994fc8"><path d="M 77.914062 0.515625 L 9.09375 0.515625 C 4.238281 0.515625 0.320312 4.433594 0.320312 9.292969 L 0.320312 119.621094 C 0.320312 124.523438 4.238281 128.394531 9.09375 128.394531 L 77.898438 128.394531 C 82.753906 128.394531 86.671875 124.535156 86.671875 119.621094 L 86.703125 9.367188 C 86.761719 4.511719 82.753906 0.515625 77.925781 0.515625 Z M 77.914062 0.515625 " clip-rule="nonzero"/></clipPath><clipPath id="2d163ae981"><rect x="0" width="87" y="0" height="129"/></clipPath><clipPath id="dace39fbf7"><path d="M 7.242188 160.4375 L 95.761719 160.4375 L 95.761719 290.402344 L 7.242188 290.402344 Z M 7.242188 160.4375 " clip-rule="nonzero"/></clipPath><clipPath id="2ae621fb89"><path d="M 85.914062 162.273438 L 17.09375 162.273438 L 17.09375 161.515625 L 17.09375 162.273438 C 12.664062 162.273438 9.078125 165.859375 9.078125 170.292969 L 8.320312 170.292969 L 9.078125 170.292969 L 9.078125 280.621094 L 8.320312 280.621094 L 9.078125 280.621094 C 9.078125 285.097656 12.648438 288.636719 17.09375 288.636719 L 17.09375 289.394531 L 17.09375 288.636719 L 85.898438 288.636719 L 85.898438 289.394531 L 85.898438 288.636719 C 90.328125 288.636719 93.914062 285.113281 93.914062 280.621094 L 93.945312 170.367188 C 93.992188 165.964844 90.390625 162.332031 86.019531 162.289062 C 85.988281 162.289062 85.957031 162.289062 85.925781 162.289062 L 85.925781 161.515625 L 86.683594 161.515625 L 86.683594 162.273438 L 85.925781 162.273438 M 85.925781 160.761719 L 85.925781 161.515625 L 85.171875 161.515625 L 85.171875 160.761719 L 85.925781 160.761719 C 85.957031 160.761719 86.003906 160.761719 86.035156 160.761719 C 91.222656 160.820312 95.503906 165.132812 95.457031 170.382812 L 94.703125 170.367188 L 95.457031 170.367188 L 95.429688 280.621094 L 94.671875 280.621094 L 95.429688 280.621094 C 95.429688 285.945312 91.160156 290.152344 85.898438 290.152344 L 17.09375 290.152344 C 11.832031 290.152344 7.5625 285.945312 7.5625 280.621094 L 7.5625 170.292969 C 7.5625 165.027344 11.816406 160.761719 17.09375 160.761719 Z M 85.925781 160.761719 " clip-rule="nonzero"/></clipPath><clipPath id="5dfdb1b9c0"><path d="M 0.441406 0.601562 L 88.519531 0.601562 L 88.519531 130.199219 L 0.441406 130.199219 Z M 0.441406 0.601562 " clip-rule="nonzero"/></clipPath><clipPath id="7b27d1e1e9"><path d="M 78.914062 2.273438 L 10.09375 2.273438 L 10.09375 1.515625 L 10.09375 2.273438 C 5.664062 2.273438 2.078125 5.859375 2.078125 10.292969 L 1.320312 10.292969 L 2.078125 10.292969 L 2.078125 120.621094 L 1.320312 120.621094 L 2.078125 120.621094 C 2.078125 125.097656 5.648438 128.636719 10.09375 128.636719 L 10.09375 129.394531 L 10.09375 128.636719 L 78.898438 128.636719 L 78.898438 129.394531 L 78.898438 128.636719 C 83.328125 128.636719 86.914062 125.113281 86.914062 120.621094 L 86.945312 10.367188 C 86.992188 5.964844 83.390625 2.332031 79.019531 2.289062 C 78.988281 2.289062 78.957031 2.289062 78.925781 2.289062 L 78.925781 1.515625 L 79.683594 1.515625 L 79.683594 2.273438 L 78.925781 2.273438 M 78.925781 0.761719 L 78.925781 1.515625 L 78.171875 1.515625 L 78.171875 0.761719 L 78.925781 0.761719 C 78.957031 0.761719 79.003906 0.761719 79.035156 0.761719 C 84.222656 0.820312 88.503906 5.132812 88.457031 10.382812 L 87.703125 10.367188 L 88.457031 10.367188 L 88.429688 120.621094 L 87.671875 120.621094 L 88.429688 120.621094 C 88.429688 125.945312 84.160156 130.152344 78.898438 130.152344 L 10.09375 130.152344 C 4.832031 130.152344 0.5625 125.945312 0.5625 120.621094 L 0.5625 10.292969 C 0.5625 5.027344 4.816406 0.761719 10.09375 0.761719 Z M 78.925781 0.761719 " clip-rule="nonzero"/></clipPath><clipPath id="01f44ac89e"><rect x="0" width="89" y="0" height="131"/></clipPath><clipPath id="bb81861b9b"><path d="M 136.683594 82.554688 L 223.527344 82.554688 L 223.527344 289.609375 L 136.683594 289.609375 Z M 136.683594 82.554688 " clip-rule="nonzero"/></clipPath><clipPath id="f30e947856"><path d="M 214.476562 82.832031 L 145.738281 82.832031 C 140.835938 82.832031 136.960938 86.691406 136.960938 91.609375 L 136.960938 280.707031 C 136.960938 285.609375 140.820312 289.480469 145.738281 289.480469 L 214.476562 289.480469 C 219.335938 289.480469 223.253906 285.625 223.253906 280.707031 L 223.253906 91.609375 C 223.328125 86.707031 219.335938 82.832031 214.476562 82.832031 " clip-rule="nonzero"/></clipPath><clipPath id="082f54761e"><path d="M 0.800781 0.601562 L 87.441406 0.601562 L 87.441406 207.609375 L 0.800781 207.609375 Z M 0.800781 0.601562 " clip-rule="nonzero"/></clipPath><clipPath id="3148a1b691"><path d="M 78.476562 0.832031 L 9.738281 0.832031 C 4.835938 0.832031 0.960938 4.691406 0.960938 9.609375 L 0.960938 198.707031 C 0.960938 203.609375 4.820312 207.480469 9.738281 207.480469 L 78.476562 207.480469 C 83.335938 207.480469 87.253906 203.625 87.253906 198.707031 L 87.253906 9.609375 C 87.328125 4.707031 83.335938 0.832031 78.476562 0.832031 " clip-rule="nonzero"/></clipPath><clipPath id="7dd60a1fd3"><rect x="0" width="88" y="0" height="208"/></clipPath><clipPath id="f9825535f6"><path d="M 136 82 L 224.328125 82 L 224.328125 290.414062 L 136 290.414062 Z M 136 82 " clip-rule="nonzero"/></clipPath><clipPath id="167a671901"><path d="M 214.476562 83.589844 L 145.738281 83.589844 L 145.738281 82.832031 L 145.738281 83.589844 C 141.242188 83.589844 137.71875 87.113281 137.71875 91.609375 L 136.960938 91.609375 L 137.71875 91.609375 L 137.71875 280.707031 L 136.960938 280.707031 L 137.71875 280.707031 C 137.71875 285.199219 141.242188 288.726562 145.738281 288.726562 L 145.738281 289.480469 L 145.738281 288.726562 L 214.476562 288.726562 L 214.476562 289.480469 L 214.476562 288.726562 C 218.910156 288.726562 222.496094 285.199219 222.496094 280.707031 L 223.253906 280.707031 L 222.496094 280.707031 L 222.496094 91.609375 C 222.570312 87.191406 219 83.679688 214.628906 83.605469 C 214.585938 83.605469 214.539062 83.605469 214.492188 83.605469 L 214.492188 82.832031 L 214.492188 83.589844 M 214.492188 82.078125 C 214.554688 82.078125 214.597656 82.078125 214.660156 82.078125 C 219.832031 82.167969 224.113281 86.328125 224.023438 91.609375 L 223.269531 91.59375 L 224.023438 91.59375 L 224.023438 280.707031 C 224.023438 286.03125 219.757812 290.238281 214.492188 290.238281 L 145.738281 290.238281 C 140.410156 290.238281 136.207031 286.03125 136.207031 280.707031 L 136.207031 91.609375 C 136.207031 86.28125 140.410156 82.078125 145.738281 82.078125 Z M 214.492188 82.078125 " clip-rule="nonzero"/></clipPath><clipPath id="a104885ad6"><path d="M 0.078125 0 L 88.160156 0 L 88.160156 208.414062 L 0.078125 208.414062 Z M 0.078125 0 " clip-rule="nonzero"/></clipPath><clipPath id="83aa647b80"><path d="M 78.476562 1.589844 L 9.738281 1.589844 L 9.738281 0.832031 L 9.738281 1.589844 C 5.242188 1.589844 1.71875 5.113281 1.71875 9.609375 L 0.960938 9.609375 L 1.71875 9.609375 L 1.71875 198.707031 L 0.960938 198.707031 L 1.71875 198.707031 C 1.71875 203.199219 5.242188 206.726562 9.738281 206.726562 L 9.738281 207.480469 L 9.738281 206.726562 L 78.476562 206.726562 L 78.476562 207.480469 L 78.476562 206.726562 C 82.910156 206.726562 86.496094 203.199219 86.496094 198.707031 L 87.253906 198.707031 L 86.496094 198.707031 L 86.496094 9.609375 C 86.570312 5.191406 83 1.679688 78.628906 1.605469 C 78.585938 1.605469 78.539062 1.605469 78.492188 1.605469 L 78.492188 0.832031 L 78.492188 1.589844 M 78.492188 0.078125 C 78.554688 0.078125 78.597656 0.078125 78.660156 0.078125 C 83.832031 0.167969 88.113281 4.328125 88.023438 9.609375 L 87.269531 9.59375 L 88.023438 9.59375 L 88.023438 198.707031 C 88.023438 204.03125 83.757812 208.238281 78.492188 208.238281 L 9.738281 208.238281 C 4.410156 208.238281 0.207031 204.03125 0.207031 198.707031 L 0.207031 9.609375 C 0.207031 4.28125 4.410156 0.078125 9.738281 0.078125 Z M 78.492188 0.078125 " clip-rule="nonzero"/></clipPath><clipPath id="400c64c177"><rect x="0" width="89" y="0" height="209"/></clipPath><clipPath id="a6dbc9166a"><path d="M 263.773438 0.171875 L 354.648438 0.171875 L 354.648438 291.96875 L 263.773438 291.96875 Z M 263.773438 0.171875 " clip-rule="nonzero"/></clipPath><clipPath id="381171b762"><path d="M 343.605469 4.710938 L 274.816406 4.710938 L 274.816406 2.441406 L 274.816406 4.710938 C 271.214844 4.710938 268.3125 7.617188 268.3125 11.214844 L 266.042969 11.214844 L 268.3125 11.214844 L 268.3125 280.632812 L 266.042969 280.632812 L 268.3125 280.632812 C 268.3125 284.277344 271.199219 287.136719 274.816406 287.136719 L 274.816406 289.40625 L 274.816406 287.136719 L 343.605469 287.136719 L 343.605469 289.40625 L 343.605469 287.136719 C 347.203125 287.136719 350.109375 284.277344 350.109375 280.632812 L 352.378906 280.632812 L 350.109375 280.632812 L 350.109375 11.292969 L 352.378906 11.292969 L 350.109375 11.292969 C 350.109375 7.675781 347.175781 4.710938 343.605469 4.710938 L 341.335938 4.710938 L 341.335938 2.441406 L 343.605469 2.441406 L 343.605469 4.710938 M 343.605469 0.171875 L 345.871094 0.171875 L 345.871094 2.441406 L 343.605469 2.441406 L 343.605469 0.171875 C 349.730469 0.171875 354.648438 5.210938 354.648438 11.292969 L 354.648438 280.632812 C 354.648438 286.804688 349.699219 291.675781 343.605469 291.675781 L 274.816406 291.675781 C 268.71875 291.675781 263.773438 286.804688 263.773438 280.632812 L 263.773438 11.214844 C 263.773438 5.105469 268.703125 0.171875 274.816406 0.171875 Z M 343.605469 0.171875 " clip-rule="nonzero"/></clipPath><clipPath id="c07fb15b15"><path d="M 0.773438 0.171875 L 91.648438 0.171875 L 91.648438 291.878906 L 0.773438 291.878906 Z M 0.773438 0.171875 " clip-rule="nonzero"/></clipPath><clipPath id="f11277edbe"><path d="M 80.605469 4.710938 L 11.816406 4.710938 L 11.816406 2.441406 L 11.816406 4.710938 C 8.214844 4.710938 5.3125 7.617188 5.3125 11.214844 L 3.042969 11.214844 L 5.3125 11.214844 L 5.3125 280.632812 L 3.042969 280.632812 L 5.3125 280.632812 C 5.3125 284.277344 8.199219 287.136719 11.816406 287.136719 L 11.816406 289.40625 L 11.816406 287.136719 L 80.605469 287.136719 L 80.605469 289.40625 L 80.605469 287.136719 C 84.203125 287.136719 87.109375 284.277344 87.109375 280.632812 L 89.378906 280.632812 L 87.109375 280.632812 L 87.109375 11.292969 L 89.378906 11.292969 L 87.109375 11.292969 C 87.109375 7.675781 84.175781 4.710938 80.605469 4.710938 L 78.335938 4.710938 L 78.335938 2.441406 L 80.605469 2.441406 L 80.605469 4.710938 M 80.605469 0.171875 L 82.871094 0.171875 L 82.871094 2.441406 L 80.605469 2.441406 L 80.605469 0.171875 C 86.730469 0.171875 91.648438 5.210938 91.648438 11.292969 L 91.648438 280.632812 C 91.648438 286.804688 86.699219 291.675781 80.605469 291.675781 L 11.816406 291.675781 C 5.71875 291.675781 0.773438 286.804688 0.773438 280.632812 L 0.773438 11.214844 C 0.773438 5.105469 5.703125 0.171875 11.816406 0.171875 Z M 80.605469 0.171875 " clip-rule="nonzero"/></clipPath><clipPath id="711a8ef974"><rect x="0" width="92" y="0" height="292"/></clipPath><clipPath id="2ba9bf1577"><rect x="0" width="355" y="0" height="299"/></clipPath></defs><rect x="-36.9" width="442.8" fill="#ffffff" y="-36.899999" height="442.799989" fill-opacity="1"/><g transform="matrix(1, 0, 0, 1, 0, 41)"><g clip-path="url(#2ba9bf1577)"><g clip-path="url(#75f54fcf01)"><g clip-path="url(#d6ffba53ed)"><g transform="matrix(1, 0, 0, 1, 8, 161)"><g clip-path="url(#2d163ae981)"><g clip-path="url(#c114b8540c)"><g clip-path="url(#41bc994fc8)"><rect x="-142.316" width="637.632" fill="#000000" y="-336.315997" height="637.631984" fill-opacity="1"/></g></g></g></g></g></g><g clip-path="url(#dace39fbf7)"><g clip-path="url(#2ae621fb89)"><g transform="matrix(1, 0, 0, 1, 7, 160)"><g clip-path="url(#01f44ac89e)"><g clip-path="url(#5dfdb1b9c0)"><g clip-path="url(#7b27d1e1e9)"><rect x="-141.316" width="637.632" fill="#000000" y="-335.315997" height="637.631984" fill-opacity="1"/></g></g></g></g></g></g><g clip-path="url(#bb81861b9b)"><g clip-path="url(#f30e947856)"><g transform="matrix(1, 0, 0, 1, 136, 82)"><g clip-path="url(#7dd60a1fd3)"><g clip-path="url(#082f54761e)"><g clip-path="url(#3148a1b691)"><rect x="-270.316" width="637.632" fill="#000000" y="-257.315997" height="637.631984" fill-opacity="1"/></g></g></g></g></g></g><g clip-path="url(#f9825535f6)"><g clip-path="url(#167a671901)"><g transform="matrix(1, 0, 0, 1, 136, 82)"><g clip-path="url(#400c64c177)"><g clip-path="url(#a104885ad6)"><g clip-path="url(#83aa647b80)"><rect x="-270.316" width="637.632" fill="#000000" y="-257.315997" height="637.631984" fill-opacity="1"/></g></g></g></g></g></g><g clip-path="url(#a6dbc9166a)"><g clip-path="url(#381171b762)"><g transform="matrix(1, 0, 0, 1, 263, -0.000000000000007105)"><g clip-path="url(#711a8ef974)"><g clip-path="url(#c07fb15b15)"><g clip-path="url(#f11277edbe)"><path fill="#000000" d="M 0.773438 0.171875 L 91.648438 0.171875 L 91.648438 291.613281 L 0.773438 291.613281 Z M 0.773438 0.171875 " fill-opacity="1" fill-rule="nonzero"/></g></g></g></g></g></g></g></g></svg>